STARTFONT 2.1
COMMENT
COMMENT /efont/ 18dot Kanji font
COMMENT 	for ISO 8859-1
COMMENT
COMMENT Designed by /efont/ <efont@ring.gr.jp>, 2001
COMMENT
FONT -Shinonome-Gothic-Medium-I-Normal--18-170-75-75-C-90-ISO8859-1
SIZE 18 75 75
FONTBOUNDINGBOX 14 18 -2 -2
STARTPROPERTIES 20
FONTNAME_REGISTRY ""
FOUNDRY "Shinonome"
FAMILY_NAME "Gothic"
WEIGHT_NAME "Medium"
SLANT "I"
SETWIDTH_NAME "Normal"
ADD_STYLE_NAME ""
PIXEL_SIZE 18
POINT_SIZE 169
RESOLUTION_X 75
RESOLUTION_Y 75
SPACING "C"
AVERAGE_WIDTH 90
CHARSET_REGISTRY "ISO8859"
CHARSET_ENCODING "1"
DEFAULT_CHAR 32
FONT_DESCENT 2
FONT_ASCENT 16
COPYRIGHT "Public Domain"
_XMBDFED_INFO "Edited with xmbdfed 4.4."
ENDPROPERTIES
CHARS 221
STARTCHAR 01
ENCODING 1
SWIDTH 480 0
DWIDTH 9 0
BBX 14 18 -2 -2
BITMAP
0040
0040
00E0
01C0
01C0
03E0
07C0
0FE0
0FE0
0F80
0F80
0700
0E00
0E00
0400
0800
0000
0000
ENDCHAR
STARTCHAR 02
ENCODING 2
SWIDTH 480 0
DWIDTH 9 0
BBX 14 18 -2 -2
BITMAP
0554
02A8
0754
0550
0AA8
0D50
1550
0AA0
1D50
1540
2AA0
3540
5540
2A80
5D40
7500
0000
0000
ENDCHAR
STARTCHAR 03
ENCODING 3
SWIDTH 480 0
DWIDTH 9 0
BBX 14 18 -2 -2
BITMAP
0220
0220
0220
0440
07C0
0440
0880
0880
0000
03E0
0080
0080
0100
0100
0100
0200
0200
0000
ENDCHAR
STARTCHAR 04
ENCODING 4
SWIDTH 480 0
DWIDTH 9 0
BBX 14 18 -2 -2
BITMAP
03F0
0200
0200
0780
0400
0400
0800
0800
0000
07E0
0400
0400
0F00
0800
0800
1000
1000
0000
ENDCHAR
STARTCHAR 05
ENCODING 5
SWIDTH 480 0
DWIDTH 9 0
BBX 14 18 -2 -2
BITMAP
03C0
0420
0400
0800
0800
0800
0880
0700
0000
0F80
0840
0880
1F00
1200
1200
2200
2100
0000
ENDCHAR
STARTCHAR 06
ENCODING 6
SWIDTH 480 0
DWIDTH 9 0
BBX 14 18 -2 -2
BITMAP
0200
0200
0200
0400
0400
0400
0800
0FC0
0000
07E0
0400
0400
0F80
0800
0800
1000
1000
0000
ENDCHAR
STARTCHAR 07
ENCODING 7
SWIDTH 480 0
DWIDTH 9 0
BBX 14 18 -2 -2
BITMAP
0000
0000
0180
0240
0420
0440
0480
0300
0000
0000
0000
0000
0000
0000
0000
0000
0000
0000
ENDCHAR
STARTCHAR    8
ENCODING 8
SWIDTH 480 0
DWIDTH 9 0
BBX 14 18 -2 -2
BITMAP
0000
0000
0000
0000
0080
0080
0100
0FE0
0100
0200
0200
0000
0000
0000
3F80
0000
0000
0000
ENDCHAR
STARTCHAR    9
ENCODING 9
SWIDTH 480 0
DWIDTH 9 0
BBX 14 18 -2 -2
BITMAP
0610
0610
0610
0A20
0920
0920
1140
1140
10C0
0800
0800
0800
1000
1000
1000
2000
3F00
0000
ENDCHAR
STARTCHAR    a
ENCODING 10
SWIDTH 480 0
DWIDTH 9 0
BBX 14 18 -2 -2
BITMAP
0440
0440
0440
0880
0880
0900
0A00
0400
0000
07C0
0100
0100
0200
0200
0200
0400
0400
0000
ENDCHAR
STARTCHAR    b
ENCODING 11
SWIDTH 480 0
DWIDTH 9 0
BBX 14 18 -2 -2
BITMAP
0040
0040
0040
0080
0080
0080
0100
0100
0100
3E00
0000
0000
0000
0000
0000
0000
0000
0000
ENDCHAR
STARTCHAR    c
ENCODING 12
SWIDTH 480 0
DWIDTH 9 0
BBX 14 18 -2 -2
BITMAP
0000
0000
0000
0000
0000
0000
0000
0000
0000
3E00
0200
0200
0400
0400
0400
0800
0800
0800
ENDCHAR
STARTCHAR    d
ENCODING 13
SWIDTH 480 0
DWIDTH 9 0
BBX 14 18 -2 -2
BITMAP
0000
0000
0000
0000
0000
0000
0000
0000
0000
03E0
0200
0200
0400
0400
0400
0800
0800
0800
ENDCHAR
STARTCHAR    e
ENCODING 14
SWIDTH 480 0
DWIDTH 9 0
BBX 14 18 -2 -2
BITMAP
0040
0040
0040
0080
0080
0080
0100
0100
0100
03E0
0000
0000
0000
0000
0000
0000
0000
0000
ENDCHAR
STARTCHAR    f
ENCODING 15
SWIDTH 480 0
DWIDTH 9 0
BBX 14 18 -2 -2
BITMAP
0040
0040
0040
0080
0080
0080
0100
0100
0100
3FE0
0200
0200
0400
0400
0400
0800
0800
0800
ENDCHAR
STARTCHAR   10
ENCODING 16
SWIDTH 480 0
DWIDTH 9 0
BBX 14 18 -2 -2
BITMAP
0000
0000
07FC
0000
0000
0000
0000
0000
0000
0000
0000
0000
0000
0000
0000
0000
0000
0000
ENDCHAR
STARTCHAR   11
ENCODING 17
SWIDTH 480 0
DWIDTH 9 0
BBX 14 18 -2 -2
BITMAP
0000
0000
0000
0000
0000
0FF8
0000
0000
0000
0000
0000
0000
0000
0000
0000
0000
0000
0000
ENDCHAR
STARTCHAR   12
ENCODING 18
SWIDTH 480 0
DWIDTH 9 0
BBX 14 18 -2 -2
BITMAP
0000
0000
0000
0000
0000
0000
0000
0000
0000
3FE0
0000
0000
0000
0000
0000
0000
0000
0000
ENDCHAR
STARTCHAR   13
ENCODING 19
SWIDTH 480 0
DWIDTH 9 0
BBX 14 18 -2 -2
BITMAP
0000
0000
0000
0000
0000
0000
0000
0000
0000
0000
0000
0000
7FC0
0000
0000
0000
0000
0000
ENDCHAR
STARTCHAR   14
ENCODING 20
SWIDTH 480 0
DWIDTH 9 0
BBX 14 18 -2 -2
BITMAP
0000
0000
0000
0000
0000
0000
0000
0000
0000
0000
0000
0000
0000
0000
0000
0000
FF80
0000
ENDCHAR
STARTCHAR   15
ENCODING 21
SWIDTH 480 0
DWIDTH 9 0
BBX 14 18 -2 -2
BITMAP
0040
0040
0040
0080
0080
0080
0100
0100
0100
03E0
0200
0200
0400
0400
0400
0800
0800
0800
ENDCHAR
STARTCHAR   16
ENCODING 22
SWIDTH 480 0
DWIDTH 9 0
BBX 14 18 -2 -2
BITMAP
0040
0040
0040
0080
0080
0080
0100
0100
0100
3E00
0200
0200
0400
0400
0400
0800
0800
0800
ENDCHAR
STARTCHAR   17
ENCODING 23
SWIDTH 480 0
DWIDTH 9 0
BBX 14 18 -2 -2
BITMAP
0040
0040
0040
0080
0080
0080
0100
0100
0100
3FE0
0000
0000
0000
0000
0000
0000
0000
0000
ENDCHAR
STARTCHAR   18
ENCODING 24
SWIDTH 480 0
DWIDTH 9 0
BBX 14 18 -2 -2
BITMAP
0000
0000
0000
0000
0000
0000
0000
0000
0000
3FE0
0200
0200
0400
0400
0400
0800
0800
0800
ENDCHAR
STARTCHAR   19
ENCODING 25
SWIDTH 480 0
DWIDTH 9 0
BBX 14 18 -2 -2
BITMAP
0040
0040
0040
0080
0080
0080
0100
0100
0100
0200
0200
0200
0400
0400
0400
0800
0800
0800
ENDCHAR
STARTCHAR   1a
ENCODING 26
SWIDTH 480 0
DWIDTH 9 0
BBX 14 18 -2 -2
BITMAP
0000
0000
0038
00C0
0300
0C00
0200
0180
0060
0000
0000
3FC0
0000
0000
7F80
0000
0000
0000
ENDCHAR
STARTCHAR   1b
ENCODING 27
SWIDTH 480 0
DWIDTH 9 0
BBX 14 18 -2 -2
BITMAP
0000
0000
0600
0100
00C0
0070
0180
0600
1800
0000
0000
3FC0
0000
0000
7F80
0000
0000
0000
ENDCHAR
STARTCHAR   1c
ENCODING 28
SWIDTH 480 0
DWIDTH 9 0
BBX 14 18 -2 -2
BITMAP
0000
0000
0000
0000
0000
0000
0000
0000
1FE0
0900
0900
0900
1200
1200
2200
C100
0000
0000
ENDCHAR
STARTCHAR   1d
ENCODING 29
SWIDTH 480 0
DWIDTH 9 0
BBX 14 18 -2 -2
BITMAP
0000
0000
0000
0000
0000
0030
0040
1FE0
0300
0400
3FC0
3000
4000
0000
0000
0000
0000
0000
ENDCHAR
STARTCHAR   1e
ENCODING 30
SWIDTH 480 0
DWIDTH 9 0
BBX 14 18 -2 -2
BITMAP
0000
0000
0000
0000
01C0
0220
0400
0400
0400
0800
3F80
0800
1000
1000
7E00
A100
4000
0000
ENDCHAR
STARTCHAR   1f
ENCODING 31
SWIDTH 480 0
DWIDTH 9 0
BBX 14 18 -2 -2
BITMAP
0000
0000
0000
0000
0000
0000
0000
0000
0000
0200
0000
0000
0000
0000
0000
0000
0000
0000
ENDCHAR
STARTCHAR 20
ENCODING 32
SWIDTH 480 0
DWIDTH 9 0
BBX 14 18 -2 -2
BITMAP
0000
0000
0000
0000
0000
0000
0000
0000
0000
0000
0000
0000
0000
0000
0000
0000
0000
0000
ENDCHAR
STARTCHAR 21
ENCODING 33
SWIDTH 480 0
DWIDTH 9 0
BBX 14 18 -2 -2
BITMAP
0000
0040
00E0
01C0
01C0
01C0
0380
0100
0100
0200
0200
0200
0000
0000
0000
0800
0800
0000
ENDCHAR
STARTCHAR 22
ENCODING 34
SWIDTH 480 0
DWIDTH 9 0
BBX 14 18 -2 -2
BITMAP
0000
0330
0330
0220
0220
0440
0000
0000
0000
0000
0000
0000
0000
0000
0000
0000
0000
0000
ENDCHAR
STARTCHAR 23
ENCODING 35
SWIDTH 480 0
DWIDTH 9 0
BBX 14 18 -2 -2
BITMAP
0000
0090
0090
0120
0120
07F8
0240
0480
0480
0900
0900
3FC0
1200
2400
2400
4800
4800
0000
ENDCHAR
STARTCHAR 24
ENCODING 36
SWIDTH 480 0
DWIDTH 9 0
BBX 14 18 -2 -2
BITMAP
0040
01E0
0250
0490
0890
0890
0900
0900
0780
0280
0240
2240
4480
4480
2500
1E00
0800
0800
ENDCHAR
STARTCHAR 25
ENCODING 37
SWIDTH 480 0
DWIDTH 9 0
BBX 14 18 -2 -2
BITMAP
0004
0204
0508
0910
0920
0940
0A40
0480
0100
0200
0480
0940
0A40
1240
2240
4280
8100
8000
ENDCHAR
STARTCHAR 26
ENCODING 38
SWIDTH 480 0
DWIDTH 9 0
BBX 14 18 -2 -2
BITMAP
0000
00C0
0120
0220
0420
0440
0580
0200
0D00
1100
2100
20E0
4080
4140
2600
1800
0000
0000
ENDCHAR
STARTCHAR 27
ENCODING 39
SWIDTH 480 0
DWIDTH 9 0
BBX 14 18 -2 -2
BITMAP
0000
0300
0300
0200
0200
0400
0000
0000
0000
0000
0000
0000
0000
0000
0000
0000
0000
0000
ENDCHAR
STARTCHAR 28
ENCODING 40
SWIDTH 480 0
DWIDTH 9 0
BBX 14 18 -2 -2
BITMAP
0010
0020
0040
0080
0100
0200
0400
0400
0400
0800
0800
0800
0800
0800
0800
0800
0400
0200
ENDCHAR
STARTCHAR 29
ENCODING 41
SWIDTH 480 0
DWIDTH 9 0
BBX 14 18 -2 -2
BITMAP
0200
0100
0080
0080
0080
0080
0080
0080
0080
0100
0100
0200
0200
0400
0800
1000
2000
4000
ENDCHAR
STARTCHAR 2a
ENCODING 42
SWIDTH 480 0
DWIDTH 9 0
BBX 14 18 -2 -2
BITMAP
0000
0000
0000
0000
0000
0080
0920
0540
0780
0A80
1240
0200
0000
0000
0000
0000
0000
0000
ENDCHAR
STARTCHAR 2b
ENCODING 43
SWIDTH 480 0
DWIDTH 9 0
BBX 14 18 -2 -2
BITMAP
0000
0000
0000
0000
0080
0080
0100
0100
0FE0
0200
0200
0200
0400
0000
0000
0000
0000
0000
ENDCHAR
STARTCHAR 2c
ENCODING 44
SWIDTH 480 0
DWIDTH 9 0
BBX 14 18 -2 -2
BITMAP
0000
0000
0000
0000
0000
0000
0000
0000
0000
0000
0000
0000
0000
3000
3000
2000
2000
4000
ENDCHAR
STARTCHAR 2d
ENCODING 45
SWIDTH 480 0
DWIDTH 9 0
BBX 14 18 -2 -2
BITMAP
0000
0000
0000
0000
0000
0000
0000
0000
0FE0
0000
0000
0000
0000
0000
0000
0000
0000
0000
ENDCHAR
STARTCHAR 2e
ENCODING 46
SWIDTH 480 0
DWIDTH 9 0
BBX 14 18 -2 -2
BITMAP
0000
0000
0000
0000
0000
0000
0000
0000
0000
0000
0000
0000
0000
0000
3000
6000
0000
0000
ENDCHAR
STARTCHAR 2f
ENCODING 47
SWIDTH 480 0
DWIDTH 9 0
BBX 14 18 -2 -2
BITMAP
0008
0008
0010
0020
0040
0080
0080
0100
0200
0400
0800
1000
1000
2000
4000
8000
0000
0000
ENDCHAR
STARTCHAR 30
ENCODING 48
SWIDTH 480 0
DWIDTH 9 0
BBX 14 18 -2 -2
BITMAP
0000
00C0
0120
0220
0410
0410
0820
0820
0820
1040
1040
1080
1080
1100
1200
0C00
0000
0000
ENDCHAR
STARTCHAR 31
ENCODING 49
SWIDTH 480 0
DWIDTH 9 0
BBX 14 18 -2 -2
BITMAP
0000
0040
0040
0180
0280
0480
0100
0100
0100
0200
0200
0200
0400
0400
0400
0800
0000
0000
ENDCHAR
STARTCHAR 32
ENCODING 50
SWIDTH 480 0
DWIDTH 9 0
BBX 14 18 -2 -2
BITMAP
0000
00E0
0110
0210
0410
0410
0820
0020
0040
0080
0100
0600
0800
1000
2000
7F00
0000
0000
ENDCHAR
STARTCHAR 33
ENCODING 51
SWIDTH 480 0
DWIDTH 9 0
BBX 14 18 -2 -2
BITMAP
0000
00E0
0110
0210
0410
0010
0020
0040
0300
0080
0040
0040
2080
2080
1300
0C00
0000
0000
ENDCHAR
STARTCHAR 34
ENCODING 52
SWIDTH 480 0
DWIDTH 9 0
BBX 14 18 -2 -2
BITMAP
0000
0020
0060
00C0
0140
0240
0480
0880
1080
2100
3FC0
0100
0200
0200
0200
0400
0000
0000
ENDCHAR
STARTCHAR 35
ENCODING 53
SWIDTH 480 0
DWIDTH 9 0
BBX 14 18 -2 -2
BITMAP
0000
01F0
0100
0200
0200
0400
0800
0B80
0C40
0040
0040
1040
2080
2080
1300
0C00
0000
0000
ENDCHAR
STARTCHAR 36
ENCODING 54
SWIDTH 480 0
DWIDTH 9 0
BBX 14 18 -2 -2
BITMAP
0000
00E0
0110
0210
0400
0400
0800
0B80
0C40
1040
1040
1040
2080
2080
1300
0C00
0000
0000
ENDCHAR
STARTCHAR 37
ENCODING 55
SWIDTH 480 0
DWIDTH 9 0
BBX 14 18 -2 -2
BITMAP
0000
07F8
0008
0010
0020
0040
0080
0100
0200
0200
0400
0400
0800
0800
0800
1000
0000
0000
ENDCHAR
STARTCHAR 38
ENCODING 56
SWIDTH 480 0
DWIDTH 9 0
BBX 14 18 -2 -2
BITMAP
0000
00E0
0110
0210
0410
0410
0420
0440
0700
0880
1040
1040
2080
2080
1300
0C00
0000
0000
ENDCHAR
STARTCHAR 39
ENCODING 57
SWIDTH 480 0
DWIDTH 9 0
BBX 14 18 -2 -2
BITMAP
0000
00E0
0110
0210
0410
0410
0820
0820
04E0
0340
0040
0040
2080
2080
1300
0C00
0000
0000
ENDCHAR
STARTCHAR 3a
ENCODING 58
SWIDTH 480 0
DWIDTH 9 0
BBX 14 18 -2 -2
BITMAP
0000
0000
0000
0000
0180
0180
0000
0000
0000
0000
0000
0000
0C00
0C00
0000
0000
0000
0000
ENDCHAR
STARTCHAR 3b
ENCODING 59
SWIDTH 480 0
DWIDTH 9 0
BBX 14 18 -2 -2
BITMAP
0000
0000
0000
0000
0180
0180
0000
0000
0000
0000
0000
0000
0C00
0C00
0400
0800
1000
0000
ENDCHAR
STARTCHAR 3c
ENCODING 60
SWIDTH 480 0
DWIDTH 9 0
BBX 14 18 -2 -2
BITMAP
0000
0000
0018
0020
0040
0180
0200
0400
0800
0800
0400
0200
0200
0100
0080
0000
0000
0000
ENDCHAR
STARTCHAR 3d
ENCODING 61
SWIDTH 480 0
DWIDTH 9 0
BBX 14 18 -2 -2
BITMAP
0000
0000
0000
0000
0000
0000
1FE0
0000
0000
0000
3FC0
0000
0000
0000
0000
0000
0000
0000
ENDCHAR
STARTCHAR 3e
ENCODING 62
SWIDTH 480 0
DWIDTH 9 0
BBX 14 18 -2 -2
BITMAP
0000
0000
0200
0200
0100
0080
0080
0040
0060
0080
0100
0600
0800
1000
2000
0000
0000
0000
ENDCHAR
STARTCHAR 3f
ENCODING 63
SWIDTH 480 0
DWIDTH 9 0
BBX 14 18 -2 -2
BITMAP
0000
00E0
0110
0210
0410
0410
0020
0040
0080
0100
0200
0200
0000
0000
0000
0800
0800
0000
ENDCHAR
STARTCHAR 40
ENCODING 64
SWIDTH 480 0
DWIDTH 9 0
BBX 14 18 -2 -2
BITMAP
0000
0000
01C0
0220
0410
0810
0B90
1450
1450
28A0
28A0
2760
2000
2080
1300
0C00
0000
0000
ENDCHAR
STARTCHAR 41
ENCODING 65
SWIDTH 480 0
DWIDTH 9 0
BBX 14 18 -2 -2
BITMAP
0040
0040
00C0
0140
0140
0240
0440
0440
0840
1040
1FC0
2040
2040
4040
4040
8080
0000
0000
ENDCHAR
STARTCHAR 42
ENCODING 66
SWIDTH 480 0
DWIDTH 9 0
BBX 14 18 -2 -2
BITMAP
0000
07C0
0420
0820
0820
0840
1040
1080
1F80
2080
2040
2040
4080
4080
4300
FC00
0000
0000
ENDCHAR
STARTCHAR 43
ENCODING 67
SWIDTH 480 0
DWIDTH 9 0
BBX 14 18 -2 -2
BITMAP
0000
01C0
0220
0420
0810
0800
1000
1000
1000
2000
2000
2000
2080
2100
2200
1C00
0000
0000
ENDCHAR
STARTCHAR 44
ENCODING 68
SWIDTH 480 0
DWIDTH 9 0
BBX 14 18 -2 -2
BITMAP
0000
0780
0440
0820
0820
0820
1020
1020
1020
2040
2040
2080
4080
4100
4600
F800
0000
0000
ENDCHAR
STARTCHAR 45
ENCODING 69
SWIDTH 480 0
DWIDTH 9 0
BBX 14 18 -2 -2
BITMAP
0000
07F8
0400
0800
0800
0800
1000
1000
1FC0
2000
2000
2000
4000
4000
4000
FF00
0000
0000
ENDCHAR
STARTCHAR 46
ENCODING 70
SWIDTH 480 0
DWIDTH 9 0
BBX 14 18 -2 -2
BITMAP
0000
07F8
0400
0800
0800
0800
1000
1000
1FC0
2000
2000
2000
4000
4000
4000
8000
0000
0000
ENDCHAR
STARTCHAR 47
ENCODING 71
SWIDTH 480 0
DWIDTH 9 0
BBX 14 18 -2 -2
BITMAP
0000
00E0
0110
0210
0400
0800
1000
1000
11E0
2040
2040
2040
2080
2080
1380
0D00
0000
0000
ENDCHAR
STARTCHAR 48
ENCODING 72
SWIDTH 480 0
DWIDTH 9 0
BBX 14 18 -2 -2
BITMAP
0000
0408
0408
0810
0810
0810
1020
1020
1FE0
2040
2040
2040
4080
4080
4080
8100
0000
0000
ENDCHAR
STARTCHAR 49
ENCODING 73
SWIDTH 480 0
DWIDTH 9 0
BBX 14 18 -2 -2
BITMAP
0000
01F0
0040
0080
0080
0080
0100
0100
0100
0200
0200
0200
0400
0400
0400
3E00
0000
0000
ENDCHAR
STARTCHAR 4a
ENCODING 74
SWIDTH 480 0
DWIDTH 9 0
BBX 14 18 -2 -2
BITMAP
0000
0008
0008
0010
0010
0010
0020
0020
0020
0040
0040
0040
2080
2080
1300
0C00
0000
0000
ENDCHAR
STARTCHAR 4b
ENCODING 75
SWIDTH 480 0
DWIDTH 9 0
BBX 14 18 -2 -2
BITMAP
0000
0408
0410
0820
0840
0880
1100
1600
1A00
2200
2100
2100
4100
4100
4100
8100
0000
0000
ENDCHAR
STARTCHAR 4c
ENCODING 76
SWIDTH 480 0
DWIDTH 9 0
BBX 14 18 -2 -2
BITMAP
0000
0400
0400
0800
0800
0800
1000
1000
1000
2000
2000
2000
4000
4000
4000
FF00
0000
0000
ENDCHAR
STARTCHAR 4d
ENCODING 77
SWIDTH 480 0
DWIDTH 9 0
BBX 14 18 -2 -2
BITMAP
0000
0408
0408
0810
0C30
0C30
1860
1860
18A0
2940
2940
2A40
4A80
4C80
4C80
9900
0000
0000
ENDCHAR
STARTCHAR 4e
ENCODING 78
SWIDTH 480 0
DWIDTH 9 0
BBX 14 18 -2 -2
BITMAP
0000
0408
0608
0C10
0A10
0A10
1220
1220
1220
2240
2240
2240
4280
4180
4180
8100
0000
0000
ENDCHAR
STARTCHAR 4f
ENCODING 79
SWIDTH 480 0
DWIDTH 9 0
BBX 14 18 -2 -2
BITMAP
0000
01E0
0210
0410
0810
0810
1020
1020
1020
2040
2040
2040
4080
4080
2300
1C00
0000
0000
ENDCHAR
STARTCHAR 50
ENCODING 80
SWIDTH 480 0
DWIDTH 9 0
BBX 14 18 -2 -2
BITMAP
0000
07E0
0410
0810
0810
0810
1020
1040
1F80
2000
2000
2000
4000
4000
4000
8000
0000
0000
ENDCHAR
STARTCHAR 51
ENCODING 81
SWIDTH 480 0
DWIDTH 9 0
BBX 14 18 -2 -2
BITMAP
0000
01C0
0220
0420
0810
0810
1020
1020
1020
2040
2040
3E40
6180
2100
2200
1A00
0400
0300
ENDCHAR
STARTCHAR 52
ENCODING 82
SWIDTH 480 0
DWIDTH 9 0
BBX 14 18 -2 -2
BITMAP
0000
07E0
0410
0810
0810
0810
1020
1040
1F80
2100
2100
2100
4100
4100
4100
8100
0000
0000
ENDCHAR
STARTCHAR 53
ENCODING 83
SWIDTH 480 0
DWIDTH 9 0
BBX 14 18 -2 -2
BITMAP
0000
01E0
0210
0410
0810
0810
0800
0400
0300
0080
0040
2040
4080
4080
2300
1C00
0000
0000
ENDCHAR
STARTCHAR 54
ENCODING 84
SWIDTH 480 0
DWIDTH 9 0
BBX 14 18 -2 -2
BITMAP
0000
07FC
0040
0080
0080
0080
0100
0100
0100
0200
0200
0200
0400
0400
0400
0800
0000
0000
ENDCHAR
STARTCHAR 55
ENCODING 85
SWIDTH 480 0
DWIDTH 9 0
BBX 14 18 -2 -2
BITMAP
0000
0408
0408
0810
0810
0810
1020
1020
1020
2040
2040
2080
2080
2100
2200
1C00
0000
0000
ENDCHAR
STARTCHAR 56
ENCODING 86
SWIDTH 480 0
DWIDTH 9 0
BBX 14 18 -2 -2
BITMAP
0000
0408
0408
0810
0810
0820
0840
0840
0880
0880
0900
0A00
0A00
0C00
0C00
1800
0000
0000
ENDCHAR
STARTCHAR 57
ENCODING 87
SWIDTH 480 0
DWIDTH 9 0
BBX 14 18 -2 -2
BITMAP
0000
0444
0444
0888
0888
0890
0990
0AA0
0AA0
1540
1540
1880
1100
1100
1100
2200
0000
0000
ENDCHAR
STARTCHAR 58
ENCODING 88
SWIDTH 480 0
DWIDTH 9 0
BBX 14 18 -2 -2
BITMAP
0000
0408
0410
0410
0420
0440
0480
0300
0500
0600
0900
1100
1100
2100
4100
8100
0000
0000
ENDCHAR
STARTCHAR 59
ENCODING 89
SWIDTH 480 0
DWIDTH 9 0
BBX 14 18 -2 -2
BITMAP
0000
0410
0420
0420
0440
0480
0480
0500
0600
0A00
0400
0400
0800
0800
0800
1000
0000
0000
ENDCHAR
STARTCHAR 5a
ENCODING 90
SWIDTH 480 0
DWIDTH 9 0
BBX 14 18 -2 -2
BITMAP
0000
07F8
0010
0020
0040
0080
0080
0100
0200
0400
0800
1000
1000
2000
4000
FF00
0000
0000
ENDCHAR
STARTCHAR 5b
ENCODING 91
SWIDTH 480 0
DWIDTH 9 0
BBX 14 18 -2 -2
BITMAP
00F8
0080
0080
0100
0100
0100
0200
0200
0200
0400
0400
0400
0800
0800
0800
1000
1F00
0000
ENDCHAR
STARTCHAR 5c
ENCODING 92
SWIDTH 480 0
DWIDTH 9 0
BBX 14 18 -2 -2
BITMAP
0200
0200
0200
0200
0100
0100
0100
0100
0100
0100
0080
0080
0080
0080
0080
0080
0000
0000
ENDCHAR
STARTCHAR 5d
ENCODING 93
SWIDTH 480 0
DWIDTH 9 0
BBX 14 18 -2 -2
BITMAP
03E0
0020
0020
0040
0040
0040
0080
0080
0080
0100
0100
0100
0200
0200
0200
0400
7C00
0000
ENDCHAR
STARTCHAR 5e
ENCODING 94
SWIDTH 480 0
DWIDTH 9 0
BBX 14 18 -2 -2
BITMAP
0000
00C0
0320
0420
0810
0000
0000
0000
0000
0000
0000
0000
0000
0000
0000
0000
0000
0000
ENDCHAR
STARTCHAR 5f
ENCODING 95
SWIDTH 480 0
DWIDTH 9 0
BBX 14 18 -2 -2
BITMAP
0000
0000
0000
0000
0000
0000
0000
0000
0000
0000
0000
0000
0000
0000
0000
FF80
0000
0000
ENDCHAR
STARTCHAR 60
ENCODING 96
SWIDTH 480 0
DWIDTH 9 0
BBX 14 18 -2 -2
BITMAP
0180
0180
0100
0100
0100
0000
0000
0000
0000
0000
0000
0000
0000
0000
0000
0000
0000
0000
ENDCHAR
STARTCHAR 61
ENCODING 97
SWIDTH 480 0
DWIDTH 9 0
BBX 14 18 -2 -2
BITMAP
0000
0000
0000
0000
0000
0000
0000
0780
0840
0040
0040
0FC0
1080
2080
2380
1D00
0000
0000
ENDCHAR
STARTCHAR 62
ENCODING 98
SWIDTH 480 0
DWIDTH 9 0
BBX 14 18 -2 -2
BITMAP
0000
0400
0400
0800
0800
0800
1000
1780
1840
2040
2040
2040
4080
4080
6300
9C00
0000
0000
ENDCHAR
STARTCHAR 63
ENCODING 99
SWIDTH 480 0
DWIDTH 9 0
BBX 14 18 -2 -2
BITMAP
0000
0000
0000
0000
0000
0000
0000
0780
0840
1040
2000
2000
4000
4080
2300
1C00
0000
0000
ENDCHAR
STARTCHAR 64
ENCODING 100
SWIDTH 480 0
DWIDTH 9 0
BBX 14 18 -2 -2
BITMAP
0000
0008
0008
0010
0010
0010
0020
07A0
0860
1040
2040
2040
4080
4080
2380
1D00
0000
0000
ENDCHAR
STARTCHAR 65
ENCODING 101
SWIDTH 480 0
DWIDTH 9 0
BBX 14 18 -2 -2
BITMAP
0000
0000
0000
0000
0000
0000
0000
0780
0840
1040
2040
3FC0
4000
4080
2300
1C00
0000
0000
ENDCHAR
STARTCHAR 66
ENCODING 102
SWIDTH 480 0
DWIDTH 9 0
BBX 14 18 -2 -2
BITMAP
0000
0000
0060
0090
0100
0100
0200
0FC0
0200
0400
0400
0400
0800
0800
0800
1000
0000
0000
ENDCHAR
STARTCHAR 67
ENCODING 103
SWIDTH 480 0
DWIDTH 9 0
BBX 14 18 -2 -2
BITMAP
0000
0000
0000
0000
0000
0000
0000
0320
0480
0880
0880
0700
0800
1E00
2100
4100
4100
3E00
ENDCHAR
STARTCHAR 68
ENCODING 104
SWIDTH 480 0
DWIDTH 9 0
BBX 14 18 -2 -2
BITMAP
0000
0200
0200
0400
0400
0400
0800
0B80
0C40
1040
1040
1040
2080
2080
2080
4100
0000
0000
ENDCHAR
STARTCHAR 69
ENCODING 105
SWIDTH 480 0
DWIDTH 9 0
BBX 14 18 -2 -2
BITMAP
0000
0000
0000
0080
0080
0000
0000
0300
0100
0200
0200
0200
0400
0400
0400
0800
0000
0000
ENDCHAR
STARTCHAR 6a
ENCODING 106
SWIDTH 480 0
DWIDTH 9 0
BBX 14 18 -2 -2
BITMAP
0000
0000
0000
0020
0020
0000
0000
0040
0040
0080
0080
0080
0100
0100
0100
0200
4400
3800
ENDCHAR
STARTCHAR 6b
ENCODING 107
SWIDTH 480 0
DWIDTH 9 0
BBX 14 18 -2 -2
BITMAP
0000
0200
0200
0400
0400
0400
0800
0840
0980
1200
1400
1C00
2400
2200
2100
4100
0000
0000
ENDCHAR
STARTCHAR 6c
ENCODING 108
SWIDTH 480 0
DWIDTH 9 0
BBX 14 18 -2 -2
BITMAP
0000
01C0
0040
0080
0080
0080
0100
0100
0100
0200
0200
0200
0400
0400
0400
0800
0000
0000
ENDCHAR
STARTCHAR 6d
ENCODING 109
SWIDTH 480 0
DWIDTH 9 0
BBX 14 18 -2 -2
BITMAP
0000
0000
0000
0000
0000
0000
0000
1480
1F40
2440
2440
2440
4880
4880
4880
9100
0000
0000
ENDCHAR
STARTCHAR 6e
ENCODING 110
SWIDTH 480 0
DWIDTH 9 0
BBX 14 18 -2 -2
BITMAP
0000
0000
0000
0000
0000
0000
0000
0980
0E40
1840
1040
1040
2080
2080
2080
4100
0000
0000
ENDCHAR
STARTCHAR 6f
ENCODING 111
SWIDTH 480 0
DWIDTH 9 0
BBX 14 18 -2 -2
BITMAP
0000
0000
0000
0000
0000
0000
0000
0780
0840
1040
2040
2040
4080
4080
2300
1C00
0000
0000
ENDCHAR
STARTCHAR 70
ENCODING 112
SWIDTH 480 0
DWIDTH 9 0
BBX 14 18 -2 -2
BITMAP
0000
0000
0000
0000
0000
0000
0000
1780
1840
2040
2040
2040
4080
6100
5E00
8000
8000
8000
ENDCHAR
STARTCHAR 71
ENCODING 113
SWIDTH 480 0
DWIDTH 9 0
BBX 14 18 -2 -2
BITMAP
0000
0000
0000
0000
0000
0000
0000
07A0
0860
1040
2040
2040
2080
2180
1E80
0100
0100
0100
ENDCHAR
STARTCHAR 72
ENCODING 114
SWIDTH 480 0
DWIDTH 9 0
BBX 14 18 -2 -2
BITMAP
0000
0000
0000
0000
0000
0000
0000
0980
0E40
1800
1000
1000
2000
2000
2000
4000
0000
0000
ENDCHAR
STARTCHAR 73
ENCODING 115
SWIDTH 480 0
DWIDTH 9 0
BBX 14 18 -2 -2
BITMAP
0000
0000
0000
0000
0000
0000
0000
0780
0840
1040
1000
0F00
0080
2080
2100
1E00
0000
0000
ENDCHAR
STARTCHAR 74
ENCODING 116
SWIDTH 480 0
DWIDTH 9 0
BBX 14 18 -2 -2
BITMAP
0000
0000
0000
0000
0100
0100
0200
0FC0
0200
0400
0400
0400
0800
0800
0980
0600
0000
0000
ENDCHAR
STARTCHAR 75
ENCODING 117
SWIDTH 480 0
DWIDTH 9 0
BBX 14 18 -2 -2
BITMAP
0000
0000
0000
0000
0000
0000
0000
0820
0820
1040
1040
1040
2080
2080
1380
0D00
0000
0000
ENDCHAR
STARTCHAR 76
ENCODING 118
SWIDTH 480 0
DWIDTH 9 0
BBX 14 18 -2 -2
BITMAP
0000
0000
0000
0000
0000
0000
0000
0820
0840
0840
0880
0900
0900
0A00
0C00
0800
0000
0000
ENDCHAR
STARTCHAR 77
ENCODING 119
SWIDTH 480 0
DWIDTH 9 0
BBX 14 18 -2 -2
BITMAP
0000
0000
0000
0000
0000
0000
0000
0920
0920
1240
1540
1940
2980
1100
1100
2200
0000
0000
ENDCHAR
STARTCHAR 78
ENCODING 120
SWIDTH 480 0
DWIDTH 9 0
BBX 14 18 -2 -2
BITMAP
0000
0000
0000
0000
0000
0000
0000
0820
0840
0880
0500
0600
0A00
1100
2100
4100
0000
0000
ENDCHAR
STARTCHAR 79
ENCODING 121
SWIDTH 480 0
DWIDTH 9 0
BBX 14 18 -2 -2
BITMAP
0000
0000
0000
0000
0000
0000
0000
1020
1040
1080
0900
0A00
0A00
0400
0800
1000
2000
C000
ENDCHAR
STARTCHAR 7a
ENCODING 122
SWIDTH 480 0
DWIDTH 9 0
BBX 14 18 -2 -2
BITMAP
0000
0000
0000
0000
0000
0000
0000
1FE0
00C0
0100
0200
0C00
1000
2000
4000
FF00
0000
0000
ENDCHAR
STARTCHAR 7b
ENCODING 123
SWIDTH 480 0
DWIDTH 9 0
BBX 14 18 -2 -2
BITMAP
0010
0020
0040
0080
0080
0080
0100
0100
0400
0200
0200
0200
0400
0400
0400
0400
0400
0200
ENDCHAR
STARTCHAR 7c
ENCODING 124
SWIDTH 480 0
DWIDTH 9 0
BBX 14 18 -2 -2
BITMAP
0040
0040
0040
0080
0080
0080
0100
0100
0100
0200
0200
0200
0400
0400
0400
0800
0800
0800
ENDCHAR
STARTCHAR 7d
ENCODING 125
SWIDTH 480 0
DWIDTH 9 0
BBX 14 18 -2 -2
BITMAP
0200
0100
0100
0100
0100
0100
0200
0200
0180
0200
0400
0400
0800
0800
0800
1000
2000
4000
ENDCHAR
STARTCHAR 7e
ENCODING 126
SWIDTH 480 0
DWIDTH 9 0
BBX 14 18 -2 -2
BITMAP
0000
0000
0700
0890
0060
0000
0000
0000
0000
0000
0000
0000
0000
0000
0000
0000
0000
0000
ENDCHAR
STARTCHAR a1
ENCODING 161
SWIDTH 480 0
DWIDTH 9 0
BBX 14 18 -2 -2
BITMAP
0000
0040
0040
0000
0000
0000
0000
0100
0100
0200
0200
0700
0E00
0E00
0E00
1C00
0800
0000
ENDCHAR
STARTCHAR a2
ENCODING 162
SWIDTH 480 0
DWIDTH 9 0
BBX 14 18 -2 -2
BITMAP
0000
0040
0040
03C0
04A0
08A0
0920
1100
1100
2200
2200
2200
2480
2480
2500
1E00
0800
0800
ENDCHAR
STARTCHAR a3
ENCODING 163
SWIDTH 480 0
DWIDTH 9 0
BBX 14 18 -2 -2
BITMAP
0000
0000
0000
0000
01C0
0220
0400
0400
0400
0800
3F80
0800
1000
1000
7E00
A100
4000
0000
ENDCHAR
STARTCHAR a4
ENCODING 164
SWIDTH 480 0
DWIDTH 9 0
BBX 14 18 -2 -2
BITMAP
0000
0000
0000
0000
0000
0460
0780
0480
0480
0F00
1080
0000
0000
0000
0000
0000
0000
0000
ENDCHAR
STARTCHAR a5
ENCODING 165
SWIDTH 480 0
DWIDTH 9 0
BBX 14 18 -2 -2
BITMAP
0208
0208
0210
0210
0220
0240
0240
0280
0FE0
0200
1FC0
0200
0400
0400
0400
0800
0000
0000
ENDCHAR
STARTCHAR a6
ENCODING 166
SWIDTH 480 0
DWIDTH 9 0
BBX 14 18 -2 -2
BITMAP
0000
0040
0040
0080
0080
0080
0000
0000
0000
0000
0200
0200
0400
0400
0400
0800
0000
0000
ENDCHAR
STARTCHAR a7
ENCODING 167
SWIDTH 480 0
DWIDTH 9 0
BBX 14 18 -2 -2
BITMAP
0000
00E0
0110
0210
0400
0200
0380
0440
0860
0880
0700
0080
0080
2080
1300
0C00
0000
0000
ENDCHAR
STARTCHAR a8
ENCODING 168
SWIDTH 480 0
DWIDTH 9 0
BBX 14 18 -2 -2
BITMAP
0000
0110
0110
0220
0000
0000
0000
0000
0000
0000
0000
0000
0000
0000
0000
0000
0000
0000
ENDCHAR
STARTCHAR a9
ENCODING 169
SWIDTH 480 0
DWIDTH 9 0
BBX 14 18 -2 -2
BITMAP
0000
0000
03E0
0410
0808
0988
1250
1410
1410
2820
28A0
2920
4640
4040
2080
1F00
0000
0000
ENDCHAR
STARTCHAR aa
ENCODING 170
SWIDTH 480 0
DWIDTH 9 0
BBX 14 18 -2 -2
BITMAP
0000
01C0
0220
0020
03E0
0420
04C0
0340
0000
1F80
0000
0000
0000
0000
0000
0000
0000
0000
ENDCHAR
STARTCHAR ab
ENCODING 171
SWIDTH 480 0
DWIDTH 9 0
BBX 14 18 -2 -2
BITMAP
0000
0000
0000
0048
0090
0320
0480
0900
1200
1200
0900
0480
0480
0240
0000
0000
0000
0000
ENDCHAR
STARTCHAR ac
ENCODING 172
SWIDTH 480 0
DWIDTH 9 0
BBX 14 18 -2 -2
BITMAP
0000
0000
0000
0000
0000
0000
0000
0FE0
0020
0040
0040
0000
0000
0000
0000
0000
0000
0000
ENDCHAR
STARTCHAR ad
ENCODING 173
SWIDTH 480 0
DWIDTH 9 0
BBX 14 18 -2 -2
BITMAP
0000
0000
0000
0000
0000
0000
0000
0000
1FE0
0000
0000
0000
0000
0000
0000
0000
0000
0000
ENDCHAR
STARTCHAR ae
ENCODING 174
SWIDTH 480 0
DWIDTH 9 0
BBX 14 18 -2 -2
BITMAP
0000
0000
03E0
0410
0818
0B88
1450
1450
1490
2EA0
2920
2920
5140
5140
2180
1E00
0000
0000
ENDCHAR
STARTCHAR af
ENCODING 175
SWIDTH 480 0
DWIDTH 9 0
BBX 14 18 -2 -2
BITMAP
0000
07F8
0000
0000
0000
0000
0000
0000
0000
0000
0000
0000
0000
0000
0000
0000
0000
0000
ENDCHAR
STARTCHAR b0
ENCODING 176
SWIDTH 480 0
DWIDTH 9 0
BBX 14 18 -2 -2
BITMAP
0000
01C0
0220
0420
0420
0440
0380
0000
0000
0000
0000
0000
0000
0000
0000
0000
0000
0000
ENDCHAR
STARTCHAR b1
ENCODING 177
SWIDTH 480 0
DWIDTH 9 0
BBX 14 18 -2 -2
BITMAP
0000
0000
0000
0000
0080
0080
0100
0FE0
0100
0200
0200
0000
0000
3F80
0000
0000
0000
0000
ENDCHAR
STARTCHAR b2
ENCODING 178
SWIDTH 480 0
DWIDTH 9 0
BBX 14 18 -2 -2
BITMAP
0000
00C0
0120
0020
0040
0180
0200
0400
07C0
0000
0000
0000
0000
0000
0000
0000
0000
0000
ENDCHAR
STARTCHAR b3
ENCODING 179
SWIDTH 480 0
DWIDTH 9 0
BBX 14 18 -2 -2
BITMAP
0000
00E0
0120
0020
0040
00C0
0040
0440
0380
0000
0000
0000
0000
0000
0000
0000
0000
0000
ENDCHAR
STARTCHAR b4
ENCODING 180
SWIDTH 480 0
DWIDTH 9 0
BBX 14 18 -2 -2
BITMAP
0000
0060
00C0
0100
0200
0000
0000
0000
0000
0000
0000
0000
0000
0000
0000
0000
0000
0000
ENDCHAR
STARTCHAR b5
ENCODING 181
SWIDTH 480 0
DWIDTH 9 0
BBX 14 18 -2 -2
BITMAP
0000
0000
0000
0000
0000
0000
0000
0000
0420
0840
0840
1080
2100
2100
5700
4900
8080
8000
ENDCHAR
STARTCHAR b6
ENCODING 182
SWIDTH 480 0
DWIDTH 9 0
BBX 14 18 -2 -2
BITMAP
0000
00F0
01F0
03A0
03A0
03A0
0740
0340
0140
0280
0280
0280
0500
0500
0500
0A00
0000
0000
ENDCHAR
STARTCHAR b7
ENCODING 183
SWIDTH 480 0
DWIDTH 9 0
BBX 14 18 -2 -2
BITMAP
0000
0000
0000
0000
0000
0000
0300
0300
0000
0000
0000
0000
0000
0000
0000
0000
0000
0000
ENDCHAR
STARTCHAR b8
ENCODING 184
SWIDTH 480 0
DWIDTH 9 0
BBX 14 18 -2 -2
BITMAP
0000
0000
0000
0000
0000
0000
0000
0000
0000
0000
0000
0000
0000
0000
0600
1800
2000
0000
ENDCHAR
STARTCHAR b9
ENCODING 185
SWIDTH 480 0
DWIDTH 9 0
BBX 14 18 -2 -2
BITMAP
0000
0040
00C0
0080
0080
0080
0100
0100
0000
0000
0000
0000
0000
0000
0000
0000
0000
0000
ENDCHAR
STARTCHAR ba
ENCODING 186
SWIDTH 480 0
DWIDTH 9 0
BBX 14 18 -2 -2
BITMAP
0000
00C0
0120
0220
0220
0220
0240
0180
0000
0F80
0000
0000
0000
0000
0000
0000
0000
0000
ENDCHAR
STARTCHAR bb
ENCODING 187
SWIDTH 480 0
DWIDTH 9 0
BBX 14 18 -2 -2
BITMAP
0000
0000
0000
0900
0480
0240
0240
0120
0190
0240
0480
1900
2400
4800
0000
0000
0000
0000
ENDCHAR
STARTCHAR bc
ENCODING 188
SWIDTH 480 0
DWIDTH 9 0
BBX 14 18 -2 -2
BITMAP
0000
0208
0610
0420
0440
0480
0880
0900
0220
04C0
08C0
1140
1680
27C0
4080
8100
0000
0000
ENDCHAR
STARTCHAR bd
ENCODING 189
SWIDTH 480 0
DWIDTH 9 0
BBX 14 18 -2 -2
BITMAP
0000
0208
0610
0420
0440
0480
0880
0900
0380
0640
0840
1080
1300
2400
4400
8F00
0000
0000
ENDCHAR
STARTCHAR be
ENCODING 190
SWIDTH 480 0
DWIDTH 9 0
BBX 14 18 -2 -2
BITMAP
0000
0200
0510
0110
0320
0640
0240
1280
0E20
02C0
04C0
0740
0C80
17C0
2080
4100
0000
0000
ENDCHAR
STARTCHAR bf
ENCODING 191
SWIDTH 480 0
DWIDTH 9 0
BBX 14 18 -2 -2
BITMAP
0000
0040
0040
0000
0000
0000
0100
0100
0100
0100
0080
1080
2080
2080
2100
2200
1C00
0000
ENDCHAR
STARTCHAR c0
ENCODING 192
SWIDTH 480 0
DWIDTH 9 0
BBX 14 18 -2 -2
BITMAP
0100
0080
0040
0180
0180
0280
0480
0480
0880
1080
1F80
2080
4080
4080
4080
8100
0000
0000
ENDCHAR
STARTCHAR c1
ENCODING 193
SWIDTH 480 0
DWIDTH 9 0
BBX 14 18 -2 -2
BITMAP
0020
0040
0080
0180
0180
0280
0480
0480
0880
1080
1F80
2080
4080
4080
4080
8100
0000
0000
ENDCHAR
STARTCHAR c2
ENCODING 194
SWIDTH 480 0
DWIDTH 9 0
BBX 14 18 -2 -2
BITMAP
00C0
0120
0210
0180
0180
0280
0480
0480
0880
1080
1F80
2080
4080
4080
4080
8100
0000
0000
ENDCHAR
STARTCHAR c3
ENCODING 195
SWIDTH 480 0
DWIDTH 9 0
BBX 14 18 -2 -2
BITMAP
0190
0260
0000
0180
0180
0280
0480
0480
0880
1080
1F80
2080
4080
4080
4080
8100
0000
0000
ENDCHAR
STARTCHAR c4
ENCODING 196
SWIDTH 480 0
DWIDTH 9 0
BBX 14 18 -2 -2
BITMAP
0120
0120
0000
0180
0180
0280
0480
0480
0880
1080
1F80
2080
4080
4080
4080
8100
0000
0000
ENDCHAR
STARTCHAR c5
ENCODING 197
SWIDTH 480 0
DWIDTH 9 0
BBX 14 18 -2 -2
BITMAP
00C0
0120
0140
0140
0180
0180
0280
0480
0880
0880
1080
1F80
2080
4080
4080
8100
8100
0000
ENDCHAR
STARTCHAR c6
ENCODING 198
SWIDTH 480 0
DWIDTH 9 0
BBX 14 18 -2 -2
BITMAP
0000
0000
00FC
0180
0280
0280
0500
0500
09E0
1200
1E00
2200
4400
4400
4400
8F80
0000
0000
ENDCHAR
STARTCHAR c7
ENCODING 199
SWIDTH 480 0
DWIDTH 9 0
BBX 14 18 -2 -2
BITMAP
0000
00E0
0110
0210
0400
0800
1000
1000
1000
2000
2000
2040
2080
2080
1300
0C00
0800
1800
ENDCHAR
STARTCHAR c8
ENCODING 200
SWIDTH 480 0
DWIDTH 9 0
BBX 14 18 -2 -2
BITMAP
0100
00C0
0000
0FF0
0800
0800
1000
1000
1000
3F80
2000
2000
4000
4000
4000
FF00
0000
0000
ENDCHAR
STARTCHAR c9
ENCODING 201
SWIDTH 480 0
DWIDTH 9 0
BBX 14 18 -2 -2
BITMAP
0020
00C0
0000
0FF0
0800
0800
1000
1000
1000
3F80
2000
2000
4000
4000
4000
FF00
0000
0000
ENDCHAR
STARTCHAR ca
ENCODING 202
SWIDTH 480 0
DWIDTH 9 0
BBX 14 18 -2 -2
BITMAP
00C0
0120
0210
07F0
0800
0800
1000
1000
1000
3F80
2000
2000
4000
4000
4000
FF00
0000
0000
ENDCHAR
STARTCHAR cb
ENCODING 203
SWIDTH 480 0
DWIDTH 9 0
BBX 14 18 -2 -2
BITMAP
0120
0120
0000
0FF0
0800
0800
1000
1000
1000
3F80
2000
2000
4000
4000
4000
FF00
0000
0000
ENDCHAR
STARTCHAR cc
ENCODING 204
SWIDTH 480 0
DWIDTH 9 0
BBX 14 18 -2 -2
BITMAP
0080
0040
0020
01C0
0080
0080
0100
0100
0100
0200
0200
0200
0400
0400
0400
1C00
0000
0000
ENDCHAR
STARTCHAR cd
ENCODING 205
SWIDTH 480 0
DWIDTH 9 0
BBX 14 18 -2 -2
BITMAP
0020
0040
0080
01C0
0080
0080
0100
0100
0100
0200
0200
0200
0400
0400
0400
1C00
0000
0000
ENDCHAR
STARTCHAR ce
ENCODING 206
SWIDTH 480 0
DWIDTH 9 0
BBX 14 18 -2 -2
BITMAP
0040
00A0
0130
00C0
0080
0080
0100
0100
0100
0200
0200
0200
0400
0400
0400
1C00
0000
0000
ENDCHAR
STARTCHAR cf
ENCODING 207
SWIDTH 480 0
DWIDTH 9 0
BBX 14 18 -2 -2
BITMAP
00A0
00A0
0000
01C0
0080
0080
0100
0100
0100
0200
0200
0200
0400
0400
0400
1C00
0000
0000
ENDCHAR
STARTCHAR d0
ENCODING 208
SWIDTH 480 0
DWIDTH 9 0
BBX 14 18 -2 -2
BITMAP
0000
0380
0240
0440
0420
0420
0820
0820
1E20
1040
1040
1080
2100
2200
2C00
7000
0000
0000
ENDCHAR
STARTCHAR d1
ENCODING 209
SWIDTH 480 0
DWIDTH 9 0
BBX 14 18 -2 -2
BITMAP
0190
0260
0408
0C10
0C10
0C10
1420
1220
1220
2240
2240
2240
4280
4180
4180
8100
0000
0000
ENDCHAR
STARTCHAR d2
ENCODING 210
SWIDTH 480 0
DWIDTH 9 0
BBX 14 18 -2 -2
BITMAP
0100
0080
0040
0000
03C0
0420
0820
1020
1020
2040
2040
2040
4080
4080
2300
1C00
0000
0000
ENDCHAR
STARTCHAR d3
ENCODING 211
SWIDTH 480 0
DWIDTH 9 0
BBX 14 18 -2 -2
BITMAP
0020
0040
0080
0000
03C0
0420
0820
1020
1020
2040
2040
2040
4080
4080
2300
1C00
0000
0000
ENDCHAR
STARTCHAR d4
ENCODING 212
SWIDTH 480 0
DWIDTH 9 0
BBX 14 18 -2 -2
BITMAP
00C0
0120
0210
0000
03C0
0420
0820
1020
1020
2040
2040
2040
4080
4080
2300
1C00
0000
0000
ENDCHAR
STARTCHAR d5
ENCODING 213
SWIDTH 480 0
DWIDTH 9 0
BBX 14 18 -2 -2
BITMAP
0190
0260
0000
0000
03C0
0420
0820
1020
1020
2040
2040
2040
4080
4080
2300
1C00
0000
0000
ENDCHAR
STARTCHAR d6
ENCODING 214
SWIDTH 480 0
DWIDTH 9 0
BBX 14 18 -2 -2
BITMAP
0000
0120
0120
0000
03C0
0420
0820
1020
1020
2040
2040
2040
4080
4080
2300
1C00
0000
0000
ENDCHAR
STARTCHAR d7
ENCODING 215
SWIDTH 480 0
DWIDTH 9 0
BBX 14 18 -2 -2
BITMAP
0000
0000
0000
0000
0808
0430
0440
0280
0300
0500
0880
3040
4040
0000
0000
0000
0000
0000
ENDCHAR
STARTCHAR d8
ENCODING 216
SWIDTH 480 0
DWIDTH 9 0
BBX 14 18 -2 -2
BITMAP
0008
0008
03F0
0420
0850
0890
10A0
1120
1220
2240
2440
2840
5080
5080
4300
7C00
8000
8000
ENDCHAR
STARTCHAR d9
ENCODING 217
SWIDTH 480 0
DWIDTH 9 0
BBX 14 18 -2 -2
BITMAP
0100
0080
0040
0810
0810
0810
1020
1020
1020
2040
2040
2040
4080
4080
2300
1C00
0000
0000
ENDCHAR
STARTCHAR da
ENCODING 218
SWIDTH 480 0
DWIDTH 9 0
BBX 14 18 -2 -2
BITMAP
0020
0040
0080
0810
0810
0810
1020
1020
1020
2040
2040
2040
4080
4080
2300
1C00
0000
0000
ENDCHAR
STARTCHAR db
ENCODING 219
SWIDTH 480 0
DWIDTH 9 0
BBX 14 18 -2 -2
BITMAP
00C0
0120
0210
0000
0800
0810
1020
1020
1020
2040
2040
2040
4080
4080
2300
1C00
0000
0000
ENDCHAR
STARTCHAR dc
ENCODING 220
SWIDTH 480 0
DWIDTH 9 0
BBX 14 18 -2 -2
BITMAP
0190
0260
0000
0810
0810
0810
1020
1020
1020
2040
2040
2040
4080
4080
2300
1C00
0000
0000
ENDCHAR
STARTCHAR dd
ENCODING 221
SWIDTH 480 0
DWIDTH 9 0
BBX 14 18 -2 -2
BITMAP
0020
0040
0080
0410
0410
0420
0420
0440
0480
0500
0200
0200
0400
0400
0400
0800
0000
0000
ENDCHAR
STARTCHAR de
ENCODING 222
SWIDTH 480 0
DWIDTH 9 0
BBX 14 18 -2 -2
BITMAP
0400
0400
07C0
0820
0810
0810
1020
1040
1F80
2000
2000
2000
4000
4000
4000
8000
0000
0000
ENDCHAR
STARTCHAR df
ENCODING 223
SWIDTH 480 0
DWIDTH 9 0
BBX 14 18 -2 -2
BITMAP
0000
01E0
0210
0410
0810
0820
1040
1780
1040
2040
2040
2040
4080
4100
4600
B800
0000
0000
ENDCHAR
STARTCHAR e0
ENCODING 224
SWIDTH 480 0
DWIDTH 9 0
BBX 14 18 -2 -2
BITMAP
0000
0000
0080
0080
0040
0000
0000
0780
0840
0040
0740
08C0
1080
2080
2380
1D00
0000
0000
ENDCHAR
STARTCHAR e1
ENCODING 225
SWIDTH 480 0
DWIDTH 9 0
BBX 14 18 -2 -2
BITMAP
0000
0000
0030
0040
0080
0000
0000
0780
0840
0040
0740
08C0
1080
2080
2380
1D00
0000
0000
ENDCHAR
STARTCHAR e2
ENCODING 226
SWIDTH 480 0
DWIDTH 9 0
BBX 14 18 -2 -2
BITMAP
0000
0000
00C0
0140
0220
0000
0000
0780
0840
0040
0740
08C0
1080
2080
2380
1D00
0000
0000
ENDCHAR
STARTCHAR e3
ENCODING 227
SWIDTH 480 0
DWIDTH 9 0
BBX 14 18 -2 -2
BITMAP
0000
0000
01C8
0220
0000
0000
0000
0780
0840
0040
0740
08C0
1080
2080
2380
1D00
0000
0000
ENDCHAR
STARTCHAR e4
ENCODING 228
SWIDTH 480 0
DWIDTH 9 0
BBX 14 18 -2 -2
BITMAP
0000
0000
0000
0220
0220
0000
0000
0780
0840
0040
0740
08C0
1080
2080
2380
1D00
0000
0000
ENDCHAR
STARTCHAR e5
ENCODING 229
SWIDTH 480 0
DWIDTH 9 0
BBX 14 18 -2 -2
BITMAP
0000
0000
00C0
0140
0080
0000
0000
0780
0840
0040
0740
08C0
1080
2080
2380
1D00
0000
0000
ENDCHAR
STARTCHAR e6
ENCODING 230
SWIDTH 480 0
DWIDTH 9 0
BBX 14 18 -2 -2
BITMAP
0000
0000
0000
0000
0000
0000
0000
0CC0
1320
0220
0220
1FE0
2400
4440
5C80
2700
0000
0000
ENDCHAR
STARTCHAR e7
ENCODING 231
SWIDTH 480 0
DWIDTH 9 0
BBX 14 18 -2 -2
BITMAP
0000
0000
0000
0000
0000
0000
0000
0780
0840
1040
2000
2000
2080
2100
1E00
0800
0800
1000
ENDCHAR
STARTCHAR e8
ENCODING 232
SWIDTH 480 0
DWIDTH 9 0
BBX 14 18 -2 -2
BITMAP
0000
0000
0100
0100
0080
0000
0000
0780
0840
1040
2040
3FC0
4000
4080
2300
1C00
0000
0000
ENDCHAR
STARTCHAR e9
ENCODING 233
SWIDTH 480 0
DWIDTH 9 0
BBX 14 18 -2 -2
BITMAP
0000
0000
0060
0080
0100
0000
0000
0780
0840
1040
2040
3FC0
4000
4080
2300
1C00
0000
0000
ENDCHAR
STARTCHAR ea
ENCODING 234
SWIDTH 480 0
DWIDTH 9 0
BBX 14 18 -2 -2
BITMAP
0000
0000
0180
0280
0440
0000
0000
0780
0840
1040
2040
3FC0
4000
4080
2300
1C00
0000
0000
ENDCHAR
STARTCHAR eb
ENCODING 235
SWIDTH 480 0
DWIDTH 9 0
BBX 14 18 -2 -2
BITMAP
0000
0000
0000
0440
0440
0000
0000
0780
0840
1040
2040
3FC0
4000
4080
2300
1C00
0000
0000
ENDCHAR
STARTCHAR ec
ENCODING 236
SWIDTH 480 0
DWIDTH 9 0
BBX 14 18 -2 -2
BITMAP
0000
0000
0100
0100
0080
0000
0000
0300
0100
0200
0200
0200
0400
0400
0400
0800
0000
0000
ENDCHAR
STARTCHAR ed
ENCODING 237
SWIDTH 480 0
DWIDTH 9 0
BBX 14 18 -2 -2
BITMAP
0000
0000
0060
0080
0100
0000
0000
0300
0100
0200
0200
0200
0400
0400
0400
0800
0000
0000
ENDCHAR
STARTCHAR ee
ENCODING 238
SWIDTH 480 0
DWIDTH 9 0
BBX 14 18 -2 -2
BITMAP
0000
0000
00C0
0140
0220
0000
0000
0300
0100
0200
0200
0200
0400
0400
0400
0800
0000
0000
ENDCHAR
STARTCHAR ef
ENCODING 239
SWIDTH 480 0
DWIDTH 9 0
BBX 14 18 -2 -2
BITMAP
0000
0000
0000
0240
0240
0000
0000
0300
0100
0200
0200
0200
0400
0400
0400
0800
0000
0000
ENDCHAR
STARTCHAR f0
ENCODING 240
SWIDTH 480 0
DWIDTH 9 0
BBX 14 18 -2 -2
BITMAP
0000
0000
0230
0140
0180
0280
0C80
07C0
0840
1040
2040
2040
4080
4080
2300
1C00
0000
0000
ENDCHAR
STARTCHAR f1
ENCODING 241
SWIDTH 480 0
DWIDTH 9 0
BBX 14 18 -2 -2
BITMAP
0000
0000
0000
0320
04C0
0000
0000
0B80
0C40
1040
1040
1040
2080
2080
2080
4100
0000
0000
ENDCHAR
STARTCHAR f2
ENCODING 242
SWIDTH 480 0
DWIDTH 9 0
BBX 14 18 -2 -2
BITMAP
0000
0000
0100
0100
0080
0000
0000
0780
0840
1040
2040
2040
4080
4080
2300
1C00
0000
0000
ENDCHAR
STARTCHAR f3
ENCODING 243
SWIDTH 480 0
DWIDTH 9 0
BBX 14 18 -2 -2
BITMAP
0000
0000
0060
0080
0100
0000
0000
0780
0840
1040
2040
2040
4080
4080
2300
1C00
0000
0000
ENDCHAR
STARTCHAR f4
ENCODING 244
SWIDTH 480 0
DWIDTH 9 0
BBX 14 18 -2 -2
BITMAP
0000
0000
0180
0240
0420
0000
0000
0780
0840
1040
2040
2040
4080
4080
2300
1C00
0000
0000
ENDCHAR
STARTCHAR f5
ENCODING 245
SWIDTH 480 0
DWIDTH 9 0
BBX 14 18 -2 -2
BITMAP
0000
0000
0390
0440
0000
0000
0000
0780
0840
1040
2040
2040
4080
4080
2300
1C00
0000
0000
ENDCHAR
STARTCHAR f6
ENCODING 246
SWIDTH 480 0
DWIDTH 9 0
BBX 14 18 -2 -2
BITMAP
0000
0000
0210
0420
0000
0000
0000
0780
0840
1040
2040
2040
4080
4080
2300
1C00
0000
0000
ENDCHAR
STARTCHAR f7
ENCODING 247
SWIDTH 480 0
DWIDTH 9 0
BBX 14 18 -2 -2
BITMAP
0000
0000
0000
0000
0000
0000
0300
0000
0000
3FC0
0000
0000
0C00
0000
0000
0000
0000
0000
ENDCHAR
STARTCHAR f8
ENCODING 248
SWIDTH 480 0
DWIDTH 9 0
BBX 14 18 -2 -2
BITMAP
0000
0000
0000
0000
0000
0000
0020
07C0
09C0
1240
2240
2440
4880
5080
6300
9C00
0000
0000
ENDCHAR
STARTCHAR f9
ENCODING 249
SWIDTH 480 0
DWIDTH 9 0
BBX 14 18 -2 -2
BITMAP
0000
0000
0000
0100
0080
0040
0000
0820
0820
1040
1040
1040
2080
2080
2380
1D00
0000
0000
ENDCHAR
STARTCHAR fa
ENCODING 250
SWIDTH 480 0
DWIDTH 9 0
BBX 14 18 -2 -2
BITMAP
0000
0000
0060
0080
0100
0000
0000
0820
0820
1040
1040
1040
2080
2080
2380
1D00
0000
0000
ENDCHAR
STARTCHAR fb
ENCODING 251
SWIDTH 480 0
DWIDTH 9 0
BBX 14 18 -2 -2
BITMAP
0000
0000
00C0
0140
0220
0000
0000
0820
0820
1040
1040
1040
2080
2080
2380
1D00
0000
0000
ENDCHAR
STARTCHAR fc
ENCODING 252
SWIDTH 480 0
DWIDTH 9 0
BBX 14 18 -2 -2
BITMAP
0000
0000
0110
0220
0000
0000
0000
0820
0820
1040
1040
1040
2080
2080
2380
1D00
0000
0000
ENDCHAR
STARTCHAR fd
ENCODING 253
SWIDTH 480 0
DWIDTH 9 0
BBX 14 18 -2 -2
BITMAP
0000
0000
0060
0080
0100
0000
0000
1020
1040
1080
0900
0A00
0200
0C00
0800
1000
2000
C000
ENDCHAR
STARTCHAR fe
ENCODING 254
SWIDTH 480 0
DWIDTH 9 0
BBX 14 18 -2 -2
BITMAP
0000
0000
0000
0000
0800
0800
1000
1780
1840
2040
2040
2040
4080
6100
5E00
8000
8000
8000
ENDCHAR
STARTCHAR ff
ENCODING 255
SWIDTH 480 0
DWIDTH 9 0
BBX 14 18 -2 -2
BITMAP
0000
0000
0000
0220
0220
0000
0000
1020
1040
1080
0900
0A00
0A00
0C00
0800
1000
2000
C000
ENDCHAR
ENDFONT
